<svg width="34" height="34" viewBox="0 0 34 34" fill="none" xmlns="http://www.w3.org/2000/svg">
<path fill-rule="evenodd" clip-rule="evenodd" d="M5 0H28.3333C31.0948 0 33.3333 2.23858 33.3333 5V28.3333C33.3333 31.0948 31.0948 33.3333 28.3333 33.3333H5C2.23858 33.3333 0 31.0948 0 28.3333V5C0 2.23858 2.23858 0 5 0ZM13.75 24.3833L26.1833 11.15C26.7475 10.496 26.7185 9.51943 26.1167 8.9C25.8037 8.58448 25.3777 8.407 24.9333 8.407C24.489 8.407 24.063 8.58448 23.75 8.9L12.5333 20.8333L9.6 17.7167C9.20508 17.2335 8.57331 17.0113 7.96291 17.1412C7.35251 17.271 6.86575 17.7308 6.70156 18.333C6.5374 18.935 6.72331 19.5783 7.18333 20L11.3167 24.3833C11.6337 24.7158 12.0739 24.9028 12.5333 24.9C12.9928 24.9028 13.433 24.7158 13.75 24.3833Z" fill="#DDDDDD"/>
</svg>
